<svg xmlns="http://www.w3.org/2000/svg" width="512" height="512" viewBox="0 0 512 512" fill="#E4405F">
<path fill-rule="evenodd" clip-rule="evenodd" d="M158 32C88.4121 32 32 88.4121 32 158V354C32 423.588 88.4121 480 158 480H354C423.588 480 480 423.588 480 354V158C480 88.4121 423.588 32 354 32H158ZM361.774 159.281C366.379 162.358 371.792 164 377.33 164C381.009 164.008 384.654 163.289 388.055 161.885C391.455 160.48 394.545 158.418 397.147 155.817C399.748 153.215 401.81 150.125 403.215 146.724C404.619 143.324 405.338 139.679 405.33 136C405.33 130.462 403.688 125.049 400.611 120.444C397.534 115.839 393.161 112.251 388.045 110.131C382.929 108.012 377.299 107.458 371.867 108.538C366.436 109.618 361.447 112.285 357.531 116.201C353.615 120.117 350.948 125.106 349.868 130.537C348.788 135.969 349.342 141.599 351.461 146.715C353.581 151.831 357.17 156.204 361.774 159.281ZM297.484 195.244C285.205 187.039 270.768 182.66 256 182.66C236.203 182.681 217.223 190.555 203.224 204.554C189.225 218.552 181.351 237.533 181.33 257.33C181.33 272.098 185.709 286.535 193.914 298.814C202.119 311.094 213.781 320.664 227.425 326.316C241.069 331.968 256.083 333.446 270.567 330.565C285.052 327.684 298.357 320.572 308.8 310.13C319.242 299.687 326.354 286.382 329.235 271.897C332.116 257.413 330.638 242.399 324.986 228.755C319.335 215.111 309.764 203.449 297.484 195.244ZM193.776 164.205C212.194 151.899 233.849 145.33 256 145.33C285.704 145.33 314.192 157.13 335.196 178.134C356.2 199.138 368 227.626 368 257.33C368 279.482 361.431 301.136 349.125 319.554C336.818 337.972 319.326 352.328 298.861 360.805C278.395 369.282 255.876 371.5 234.15 367.178C212.424 362.856 192.468 352.189 176.804 336.526C161.141 320.862 150.474 300.906 146.152 279.18C141.831 257.454 144.049 234.935 152.526 214.469C161.003 194.004 175.358 176.512 193.776 164.205Z" fill="#E4405F"/>
</svg>


